# xmcd CD database file
#
# Track frame offsets:
#	182
#	14282
#	28457
#	41757
#	54532
#	68882
#	82982
#	96562
#	109687
#	123532
#	136582
#	150182
#	163607
#	176357
#	190307
#	204157
#	217307
#	231857
#	245757
#	260957
#	274857
#	288382
#
# Disc length: 4033 seconds
#
# Revision: 0
# Processed by: cddbd v1.5PL3 Copyright (c) Steve Scherf et al.
# Submitted via: CDex 1.51
#
DISCID=470fbf16
DTITLE=Charlie Patton - Charlie Patton
DYEAR=1900
DGENRE=Blues
TTITLE0=Shake It, Break It
TTITLE1=High Sherrif Blues
TTITLE2=34 Blues
TTITLE3=Stone Pony Blues
TTITLE4=A Spoonful Blues
TTITLE5=Mississippi Bo Weevil Blues
TTITLE6=Some Summer Days
TTITLE7=Some Of These Days I'll Be Gone
TTITLE8=Jim Lee
TTITLE9=Running Wild Blues
TTITLE10=I'm Going To Move To Alabama
TTITLE11=You Gonna Need Somebody When You Die
TTITLE12=Prayer Of Death
TTITLE13=When Your Way Gets Dark
TTITLE14=Highwater Everywhere
TTITLE15=Down The Dirt Road
TTITLE16=Moon Going Down
TTITLE17=I'm Going Home
TTITLE18=It Won't Be Long
TTITLE19=Screaming And Hollering The Blues
TTITLE20=Poor Me
TTITLE21=Lord, I'm Discouraged
EXTD=
EXTT0=
EXTT1=
EXTT2=
EXTT3=
EXTT4=
EXTT5=
EXTT6=
EXTT7=
EXTT8=
EXTT9=
EXTT10=
EXTT11=
EXTT12=
EXTT13=
EXTT14=
EXTT15=
EXTT16=
EXTT17=
EXTT18=
EXTT19=
EXTT20=
EXTT21=
PLAYORDER=
